<?xml version="1.0" encoding="utf-8" standalone="no"?><!DOCTYPE svg PUBLIC "-//W3C//DTD SVG 20010904//EN" "http://www.w3.org/TR/2001/REC-SVG-20010904/DTD/svg10.dtd"><svg xmlns="http://www.w3.org/2000/svg" width="383" height="403" xmlns:xlink="http://www.w3.org/1999/xlink"><source><![CDATA[Note left of Client: each connection is \nindependant
Client->Server: 
Client->Server: 
Client->Server: 
Client->Server: 
Note over Client, Server: Communication
Server->Client: 
Server->Client: 
Server->Client: 
Server->Client: 
]]></source><desc style="-webkit-tap-highlight-color: rgba(0, 0, 0, 0);">Created with Raphaël 2.1.2</desc><defs style="-webkit-tap-highlight-color: rgba(0, 0, 0, 0);"><path stroke-linecap="round" d="M5,0 0,2.5 5,5z" id="raphael-marker-block" style="-webkit-tap-highlight-color: rgba(0, 0, 0, 0);"></path><marker id="raphael-marker-endblock55-obj6835" markerHeight="5" markerWidth="5" orient="auto" refX="2.5" refY="2.5" style="-webkit-tap-highlight-color: rgba(0, 0, 0, 0);"><use xmlns:xlink="http://www.w3.org/1999/xlink" xlink:href="#raphael-marker-block" transform="rotate(180 2.5 2.5) scale(1,1)" stroke-width="1.0000" fill="#000" stroke="none" style="-webkit-tap-highlight-color: rgba(0, 0, 0, 0);"></use></marker><marker id="raphael-marker-endblock55-obj6838" markerHeight="5" markerWidth="5" orient="auto" refX="2.5" refY="2.5" style="-webkit-tap-highlight-color: rgba(0, 0, 0, 0);"><use xmlns:xlink="http://www.w3.org/1999/xlink" xlink:href="#raphael-marker-block" transform="rotate(180 2.5 2.5) scale(1,1)" stroke-width="1.0000" fill="#000" stroke="none" style="-webkit-tap-highlight-color: rgba(0, 0, 0, 0);"></use></marker><marker id="raphael-marker-endblock55-obj6841" markerHeight="5" markerWidth="5" orient="auto" refX="2.5" refY="2.5" style="-webkit-tap-highlight-color: rgba(0, 0, 0, 0);"><use xmlns:xlink="http://www.w3.org/1999/xlink" xlink:href="#raphael-marker-block" transform="rotate(180 2.5 2.5) scale(1,1)" stroke-width="1.0000" fill="#000" stroke="none" style="-webkit-tap-highlight-color: rgba(0, 0, 0, 0);"></use></marker><marker id="raphael-marker-endblock55-obj6844" markerHeight="5" markerWidth="5" orient="auto" refX="2.5" refY="2.5" style="-webkit-tap-highlight-color: rgba(0, 0, 0, 0);"><use xmlns:xlink="http://www.w3.org/1999/xlink" xlink:href="#raphael-marker-block" transform="rotate(180 2.5 2.5) scale(1,1)" stroke-width="1.0000" fill="#000" stroke="none" style="-webkit-tap-highlight-color: rgba(0, 0, 0, 0);"></use></marker><marker id="raphael-marker-endblock55-obj6850" markerHeight="5" markerWidth="5" orient="auto" refX="2.5" refY="2.5" style="-webkit-tap-highlight-color: rgba(0, 0, 0, 0);"><use xmlns:xlink="http://www.w3.org/1999/xlink" xlink:href="#raphael-marker-block" transform="rotate(180 2.5 2.5) scale(1,1)" stroke-width="1.0000" fill="#000" stroke="none" style="-webkit-tap-highlight-color: rgba(0, 0, 0, 0);"></use></marker><marker id="raphael-marker-endblock55-obj6853" markerHeight="5" markerWidth="5" orient="auto" refX="2.5" refY="2.5" style="-webkit-tap-highlight-color: rgba(0, 0, 0, 0);"><use xmlns:xlink="http://www.w3.org/1999/xlink" xlink:href="#raphael-marker-block" transform="rotate(180 2.5 2.5) scale(1,1)" stroke-width="1.0000" fill="#000" stroke="none" style="-webkit-tap-highlight-color: rgba(0, 0, 0, 0);"></use></marker><marker id="raphael-marker-endblock55-obj6856" markerHeight="5" markerWidth="5" orient="auto" refX="2.5" refY="2.5" style="-webkit-tap-highlight-color: rgba(0, 0, 0, 0);"><use xmlns:xlink="http://www.w3.org/1999/xlink" xlink:href="#raphael-marker-block" transform="rotate(180 2.5 2.5) scale(1,1)" stroke-width="1.0000" fill="#000" stroke="none" style="-webkit-tap-highlight-color: rgba(0, 0, 0, 0);"></use></marker><marker id="raphael-marker-endblock55-obj6859" markerHeight="5" markerWidth="5" orient="auto" refX="2.5" refY="2.5" style="-webkit-tap-highlight-color: rgba(0, 0, 0, 0);"><use xmlns:xlink="http://www.w3.org/1999/xlink" xlink:href="#raphael-marker-block" transform="rotate(180 2.5 2.5) scale(1,1)" stroke-width="1.0000" fill="#000" stroke="none" style="-webkit-tap-highlight-color: rgba(0, 0, 0, 0);"></use></marker></defs><path fill="#ffffff" stroke="#000000" d="M160.81472016395446,20C184.53814021533353,22.836464125057415,165.19792195168216,17.163535874942585,231.72632329038984,20C233.0704449302416,44.43485546918161,230.3822016505381,21.375834506775124,231.72632329038984,53.60304099629341C214.8148712734063,56.43950512135083,163.58801853098365,50.76657687123599,160.81472016395446,53.60304099629341C159.4705985241027,23.040006866861102,162.1588418038062,30.701369925482613,160.81472016395446,20" stroke-width="2" style="-webkit-tap-highlight-color: rgba(0, 0, 0, 0);"></path><rect x="170.81472016395443" y="29.999999999999996" width="50.91160312643541" height="13.603040996293405" rx="0" ry="0" fill="#ffffff" stroke="none" style="-webkit-tap-highlight-color: rgba(0, 0, 0, 0);"></rect><path fill="#000000" stroke="none" d="M172.70410106816763,38.301905193824275C172.17076773483427,41.635238527157604,176.97076773483428,41.67968297160205,180.0818788459454,41.45746074937983C180.0818788459454,41.45746074937983,186.52632329038985,41.013016304935384,186.52632329038985,41.013016304935384C186.92632329038983,41.10190519382427,186.92632329038983,41.235238527157605,186.92632329038983,41.81301630493538C185.28187884594539,42.613016304935385,183.14854551261206,43.05746074937983,182.0818788459454,42.79079408271316C181.28187884594539,43.235238527157605,179.9929899570565,43.235238527157605,178.92632329038983,43.235238527157605C177.63743440150094,43.235238527157605,175.90410106816762,43.27968297160205,174.25965662372317,42.74634963826872C173.9929899570565,42.701905193824274,173.81521217927872,42.613016304935385,173.81521217927872,42.390794082713164C172.34854551261205,41.81301630493538,171.6818788459454,40.924127416046495,170.8818788459454,39.76857186049094C170.03743440150095,34.701905193824274,177.3707677348343,33.10190519382427,180.83743440150096,31.90190519382427C182.3929899570565,31.90190519382427,184.74854551261205,30.524127416046497,185.23743440150096,32.21301630493538C185.1929899570565,33.50190519382427,183.05965662372319,32.83523852715761,181.85965662372317,33.45746074937983C179.41521217927874,33.81301630493538,176.74854551261205,35.013016304935384,174.0818788459454,36.613016304935385C173.5041010681676,36.96857186049094,173.05965662372319,37.546349638268715,172.70410106816763,38.301905193824275C172.70410106816763,38.301905193824275,172.70410106816763,38.301905193824275,172.70410106816763,38.301905193824275M190.0818788459454,30.035238527157603C191.01521217927873,29.768571860490937,191.72632329038984,31.05746074937983,191.41521217927874,32.47968297160205C190.97076773483428,34.74634963826872,190.17076773483427,38.47968297160205,190.17076773483427,41.72412741604649C190.17076773483427,42.21301630493539,190.43743440150095,43.324127416046494,189.59298995705652,43.36857186049094C188.30410106816763,43.14634963826872,188.25965662372317,41.235238527157605,188.4818788459454,39.67968297160205C188.4818788459454,39.67968297160205,189.72632329038984,31.81301630493538,189.72632329038984,31.81301630493538C189.45965662372316,31.05746074937983,189.7707677348343,30.524127416046497,190.0818788459454,30.035238527157603C190.0818788459454,30.035238527157603,190.0818788459454,30.035238527157603,190.0818788459454,30.035238527157603M194.43743440150095,34.07968297160205C194.74854551261205,34.87968297160205,194.83743440150096,35.10190519382427,194.21521217927872,35.76857186049094C193.1929899570565,35.50190519382427,193.28187884594539,34.96857186049094,193.72632329038984,34.168571860490935C193.81521217927872,34.168571860490935,194.0818788459454,34.12412741604649,194.43743440150095,34.07968297160205C194.43743440150095,34.07968297160205,194.43743440150095,34.07968297160205,194.43743440150095,34.07968297160205M193.1929899570565,43.05746074937983C192.3929899570565,42.1241274160465,192.83743440150096,39.81301630493538,193.14854551261206,38.34634963826872C193.45965662372316,37.90190519382427,194.03743440150095,37.99079408271316,194.17076773483427,38.613016304935385C194.12632329038985,40.21301630493539,194.4818788459454,41.81301630493538,194.0818788459454,43.235238527157605C193.72632329038984,43.324127416046494,193.72632329038984,43.235238527157605,193.1929899570565,43.05746074937983C193.1929899570565,43.05746074937983,193.1929899570565,43.05746074937983,193.1929899570565,43.05746074937983M195.41521217927874,40.83523852715761C195.41521217927874,38.25746074937983,197.68187884594542,37.67968297160205,200.30410106816763,37.546349638268715C201.7707677348343,37.50190519382427,202.30410106816763,38.25746074937983,202.92632329038986,39.10190519382427C202.97076773483428,39.72412741604649,203.01521217927873,40.83523852715761,202.61521217927873,40.96857186049094C201.54854551261207,40.87968297160205,199.3707677348343,41.546349638268715,198.21521217927875,41.45746074937983C198.12632329038985,41.546349638268715,198.12632329038985,41.59079408271316,198.12632329038985,41.59079408271316C198.12632329038985,41.72412741604649,198.65965662372318,41.94634963826872,199.7707677348343,42.25746074937983C200.70410106816763,42.25746074937983,202.83743440150096,42.65746074937983,201.14854551261206,43.235238527157605C200.74854551261208,43.857460749379825,199.63743440150097,43.50190519382427,198.65965662372318,43.50190519382427C197.4596566237232,43.27968297160205,195.41521217927874,42.25746074937983,195.41521217927874,40.83523852715761C195.41521217927874,40.83523852715761,195.41521217927874,40.83523852715761,195.41521217927874,40.83523852715761M200.70410106816763,38.83523852715761C199.72632329038984,38.924127416046495,197.68187884594542,39.05746074937983,197.81521217927875,39.990794082713165C198.8818788459454,39.90190519382427,200.74854551261208,40.21301630493539,201.32632329038987,39.72412741604649C201.10410106816764,39.14634963826872,201.2818788459454,39.14634963826872,200.70410106816763,38.83523852715761C200.70410106816763,38.83523852715761,200.70410106816763,38.83523852715761,200.70410106816763,38.83523852715761M208.7041010681676,37.324127416046494C210.34854551261205,37.59079408271316,211.45965662372316,39.72412741604649,211.45965662372316,42.25746074937983C211.45965662372316,43.67968297160205,210.74854551261205,43.36857186049094,210.0818788459454,43.013016304935384C209.28187884594539,41.67968297160205,209.85965662372317,41.013016304935384,209.1041010681676,39.235238527157605C207.45965662372316,38.65746074937983,205.94854551261207,41.67968297160205,205.01521217927873,42.1241274160465C204.12632329038985,41.990794082713165,203.28187884594539,40.390794082713164,204.0818788459454,39.36857186049094C204.17076773483427,38.83523852715761,204.21521217927872,38.701905193824274,204.57076773483428,38.0352385271576C205.1041010681676,37.67968297160205,205.45965662372316,38.5241274160465,205.85965662372317,38.56857186049094C205.85965662372317,38.56857186049094,208.7041010681676,37.324127416046494,208.7041010681676,37.324127416046494M215.72632329038984,36.701905193824274C216.1707677348343,34.87968297160205,217.2818788459454,31.101905193824273,218.61521217927873,30.74634963826872C218.7929899570565,30.790794082713163,219.6818788459454,31.59079408271316,219.10410106816764,32.34634963826872C218.34854551261208,33.324127416046494,217.81521217927875,34.87968297160205,217.5041010681676,36.96857186049094C218.65965662372318,37.324127416046494,219.72632329038984,36.65746074937983,220.74854551261208,37.19079408271316C221.3707677348343,37.19079408271316,221.72632329038984,37.324127416046494,221.72632329038984,37.59079408271316C221.68187884594542,38.43523852715761,219.7707677348343,38.390794082713164,219.1929899570565,38.613016304935385C218.74854551261208,38.65746074937983,217.14854551261206,38.613016304935385,216.7929899570565,39.05746074937983C216.34854551261208,40.1241274160465,216.61521217927873,42.03523852715761,215.90410106816762,43.41301630493538C214.97076773483428,43.27968297160205,214.74854551261208,43.45746074937983,214.74854551261208,42.5241274160465C214.74854551261208,42.1241274160465,214.83743440150096,40.924127416046495,215.10410106816764,38.924127416046495C214.43743440150095,38.34634963826872,211.5041010681676,39.324127416046494,211.6818788459454,37.72412741604649C211.85965662372317,36.0352385271576,214.83743440150096,37.99079408271316,215.72632329038984,36.701905193824274C215.72632329038984,36.701905193824274,215.72632329038984,36.701905193824274,215.72632329038984,36.701905193824274" style="-webkit-tap-highlight-color: rgba(0, 0, 0, 0);"></path><path fill="#ffffff" stroke="#000000" d="M160.81472016395446,349.63990090906174C217.5548815348878,346.8034367840043,228.50274551128075,352.47636503411917,231.72632329038984,349.63990090906174C230.3822016505381,375.1936404328235,233.0704449302416,353.55450865954606,231.72632329038984,383.24294190535517C175.10988951454192,386.0794060304126,221.76483554349892,380.40647778029773,160.81472016395446,383.24294190535517C159.4705985241027,377.58300911556483,162.1588418038062,357.26209369720044,160.81472016395446,349.63990090906174" stroke-width="2" style="-webkit-tap-highlight-color: rgba(0, 0, 0, 0);"></path><rect x="170.81472016395443" y="359.6399009090617" width="50.91160312643541" height="13.603040996293487" rx="0" ry="0" fill="#ffffff" stroke="none" style="-webkit-tap-highlight-color: rgba(0, 0, 0, 0);"></rect><path fill="#000000" stroke="none" d="M172.70410106816763,367.94180610288606C172.17076773483427,371.2751394362194,176.97076773483428,371.31958388066386,180.0818788459454,371.0973616584416C180.0818788459454,371.0973616584416,186.52632329038985,370.65291721399717,186.52632329038985,370.65291721399717C186.92632329038983,370.7418061028861,186.92632329038983,370.8751394362194,186.92632329038983,371.4529172139972C185.28187884594539,372.2529172139972,183.14854551261206,372.6973616584416,182.0818788459454,372.43069499177494C181.28187884594539,372.8751394362194,179.9929899570565,372.8751394362194,178.92632329038983,372.8751394362194C177.63743440150094,372.8751394362194,175.90410106816762,372.9195838806638,174.25965662372317,372.3862505473305C173.9929899570565,372.34180610288604,173.81521217927872,372.2529172139972,173.81521217927872,372.03069499177496C172.34854551261205,371.4529172139972,171.6818788459454,370.56402832510827,170.8818788459454,369.4084727695527C170.03743440150095,364.34180610288604,177.3707677348343,362.7418061028861,180.83743440150096,361.5418061028861C182.3929899570565,361.5418061028861,184.74854551261205,360.1640283251083,185.23743440150096,361.85291721399716C185.1929899570565,363.14180610288605,183.05965662372319,362.47513943621937,181.85965662372317,363.0973616584416C179.41521217927874,363.4529172139972,176.74854551261205,364.65291721399717,174.0818788459454,366.2529172139972C173.5041010681676,366.60847276955275,173.05965662372319,367.18625054733053,172.70410106816763,367.94180610288606C172.70410106816763,367.94180610288606,172.70410106816763,367.94180610288606,172.70410106816763,367.94180610288606M190.0818788459454,359.6751394362194C191.01521217927873,359.4084727695527,191.72632329038984,360.6973616584416,191.41521217927874,362.1195838806638C190.97076773483428,364.3862505473305,190.17076773483427,368.1195838806638,190.17076773483427,371.3640283251083C190.17076773483427,371.85291721399716,190.43743440150095,372.9640283251083,189.59298995705652,373.0084727695527C188.30410106816763,372.7862505473305,188.25965662372317,370.8751394362194,188.4818788459454,369.31958388066386C188.4818788459454,369.31958388066386,189.72632329038984,361.4529172139972,189.72632329038984,361.4529172139972C189.45965662372316,360.6973616584416,189.7707677348343,360.1640283251083,190.0818788459454,359.6751394362194C190.0818788459454,359.6751394362194,190.0818788459454,359.6751394362194,190.0818788459454,359.6751394362194M194.43743440150095,363.71958388066383C194.74854551261205,364.51958388066384,194.83743440150096,364.7418061028861,194.21521217927872,365.4084727695527C193.1929899570565,365.14180610288605,193.28187884594539,364.60847276955275,193.72632329038984,363.80847276955274C193.81521217927872,363.80847276955274,194.0818788459454,363.76402832510826,194.43743440150095,363.71958388066383C194.43743440150095,363.71958388066383,194.43743440150095,363.71958388066383,194.43743440150095,363.71958388066383M193.1929899570565,372.6973616584416C192.3929899570565,371.76402832510826,192.83743440150096,369.4529172139972,193.14854551261206,367.9862505473305C193.45965662372316,367.5418061028861,194.03743440150095,367.63069499177493,194.17076773483427,368.2529172139972C194.12632329038985,369.85291721399716,194.4818788459454,371.4529172139972,194.0818788459454,372.8751394362194C193.72632329038984,372.9640283251083,193.72632329038984,372.8751394362194,193.1929899570565,372.6973616584416C193.1929899570565,372.6973616584416,193.1929899570565,372.6973616584416,193.1929899570565,372.6973616584416M195.41521217927874,370.47513943621937C195.41521217927874,367.89736165844164,197.68187884594542,367.31958388066386,200.30410106816763,367.18625054733053C201.7707677348343,367.14180610288605,202.30410106816763,367.89736165844164,202.92632329038986,368.7418061028861C202.97076773483428,369.3640283251083,203.01521217927873,370.47513943621937,202.61521217927873,370.60847276955275C201.54854551261207,370.51958388066384,199.3707677348343,371.18625054733053,198.21521217927875,371.0973616584416C198.12632329038985,371.18625054733053,198.12632329038985,371.23069499177495,198.12632329038985,371.23069499177495C198.12632329038985,371.3640283251083,198.65965662372318,371.5862505473305,199.7707677348343,371.89736165844164C200.70410106816763,371.89736165844164,202.83743440150096,372.2973616584416,201.14854551261206,372.8751394362194C200.74854551261208,373.4973616584416,199.63743440150097,373.14180610288605,198.65965662372318,373.14180610288605C197.4596566237232,372.9195838806638,195.41521217927874,371.89736165844164,195.41521217927874,370.47513943621937C195.41521217927874,370.47513943621937,195.41521217927874,370.47513943621937,195.41521217927874,370.47513943621937M200.70410106816763,368.47513943621937C199.72632329038984,368.56402832510827,197.68187884594542,368.6973616584416,197.81521217927875,369.63069499177493C198.8818788459454,369.5418061028861,200.74854551261208,369.85291721399716,201.32632329038987,369.3640283251083C201.10410106816764,368.7862505473305,201.2818788459454,368.7862505473305,200.70410106816763,368.47513943621937C200.70410106816763,368.47513943621937,200.70410106816763,368.47513943621937,200.70410106816763,368.47513943621937M208.7041010681676,366.9640283251083C210.34854551261205,367.23069499177495,211.45965662372316,369.3640283251083,211.45965662372316,371.89736165844164C211.45965662372316,373.31958388066386,210.74854551261205,373.0084727695527,210.0818788459454,372.65291721399717C209.28187884594539,371.31958388066386,209.85965662372317,370.65291721399717,209.1041010681676,368.8751394362194C207.45965662372316,368.2973616584416,205.94854551261207,371.31958388066386,205.01521217927873,371.76402832510826C204.12632329038985,371.63069499177493,203.28187884594539,370.03069499177496,204.0818788459454,369.0084727695527C204.17076773483427,368.47513943621937,204.21521217927872,368.34180610288604,204.57076773483428,367.6751394362194C205.1041010681676,367.31958388066386,205.45965662372316,368.1640283251083,205.85965662372317,368.2084727695527C205.85965662372317,368.2084727695527,208.7041010681676,366.9640283251083,208.7041010681676,366.9640283251083M215.72632329038984,366.34180610288604C216.1707677348343,364.51958388066384,217.2818788459454,360.7418061028861,218.61521217927873,360.3862505473305C218.7929899570565,360.43069499177494,219.6818788459454,361.23069499177495,219.10410106816764,361.9862505473305C218.34854551261208,362.9640283251083,217.81521217927875,364.51958388066384,217.5041010681676,366.60847276955275C218.65965662372318,366.9640283251083,219.72632329038984,366.2973616584416,220.74854551261208,366.8306949917749C221.3707677348343,366.8306949917749,221.72632329038984,366.9640283251083,221.72632329038984,367.23069499177495C221.68187884594542,368.0751394362194,219.7707677348343,368.03069499177496,219.1929899570565,368.2529172139972C218.74854551261208,368.2973616584416,217.14854551261206,368.2529172139972,216.7929899570565,368.6973616584416C216.34854551261208,369.76402832510826,216.61521217927873,371.6751394362194,215.90410106816762,373.05291721399715C214.97076773483428,372.9195838806638,214.74854551261208,373.0973616584416,214.74854551261208,372.1640283251083C214.74854551261208,371.76402832510826,214.83743440150096,370.56402832510827,215.10410106816764,368.56402832510827C214.43743440150095,367.9862505473305,211.5041010681676,368.9640283251083,211.6818788459454,367.3640283251083C211.85965662372317,365.6751394362194,214.83743440150096,367.63069499177493,215.72632329038984,366.34180610288604C215.72632329038984,366.34180610288604,215.72632329038984,366.34180610288604,215.72632329038984,366.34180610288604" style="-webkit-tap-highlight-color: rgba(0, 0, 0, 0);"></path><path fill="none" stroke="#000000" d="M196.27052172717214,53.60304099629341C184.4290473306614,65.9371216057845,208.11199612368287,110.57516476383134,196.27052172717214,349.6399009090617" stroke-width="2" style="-webkit-tap-highlight-color: rgba(0, 0, 0, 0);"></path><path fill="#ffffff" stroke="#000000" d="M276.6421655370447,20C349.870487209256,16.91680325467497,294.2901992838366,23.08319674532503,353.72208417017043,20C355.06620581002215,27.314590970431063,352.3779625303187,33.840854882656785,353.72208417017043,53.60304099629341C325.3166021526316,56.686237741618434,308.3804297414626,50.51984425096838,276.6421655370447,53.60304099629341C275.298043897193,27.328584121188726,277.98628717689644,32.68040171657598,276.6421655370447,20" stroke-width="2" style="-webkit-tap-highlight-color: rgba(0, 0, 0, 0);"></path><rect x="286.6421655370447" y="30.59539704135658" width="57.0799186331256" height="12.412246913580244" rx="0" ry="0" fill="#ffffff" stroke="none" style="-webkit-tap-highlight-color: rgba(0, 0, 0, 0);"></rect><path fill="#000000" stroke="none" d="M287.21173495509476,42.63984148580103C286.9006238439836,42.50650815246769,286.233957177317,41.839841485801024,286.9895127328725,41.66206370802325C290.01173495509477,40.99539704135658,292.2784016217614,40.23984148580102,293.83395717731696,39.66206370802325C296.1006238439836,38.817619263578806,295.5672905106503,38.150952596912134,293.9672905106503,37.306508152467686C291.92284606620586,36.19539704135658,290.32284606620584,35.97317481913436,288.58951273287255,34.46206370802325C287.12284606620585,33.17317481913436,286.3672905106503,32.906508152467694,287.4784016217614,31.88428593024547C289.12284606620585,30.99539704135658,292.7672905106503,30.59539704135658,295.5228460662059,30.59539704135658C296.8117349550948,30.59539704135658,297.4784016217614,30.862063708023246,297.4784016217614,31.395397041356578C297.07840162176143,32.55095259691214,294.7228460662059,31.662063708023247,292.8561793995392,32.0176192635788C292.1006238439836,32.10650815246769,289.6561793995392,32.284285930245474,288.7672905106503,32.72873037468992C290.41173495509474,35.08428593024547,294.633957177317,35.306508152467686,296.7672905106503,37.66206370802325C297.12284606620585,38.062063708023246,297.2561793995392,38.55095259691214,297.2561793995392,38.99539704135658C297.07840162176143,39.750952596912136,296.233957177317,40.55095259691214,295.3895127328725,40.50650815246769C294.45617939953917,41.2176192635788,294.633957177317,40.55095259691214,293.21173495509476,41.26206370802325C292.58951273287255,41.57317481913436,291.3895127328725,41.66206370802325,290.7228460662059,42.150952596912134C289.61173495509473,42.0176192635788,288.54506828842807,42.59539704135658,287.21173495509476,42.63984148580103C287.21173495509476,42.63984148580103,287.21173495509476,42.63984148580103,287.21173495509476,42.63984148580103M297.21173495509476,40.23984148580102C297.21173495509476,37.66206370802325,299.4784016217614,37.08428593024547,302.1006238439836,36.95095259691213C303.5672905106503,36.906508152467694,304.1006238439836,37.66206370802325,304.7228460662058,38.50650815246769C304.7672905106503,39.12873037468991,304.8117349550947,40.23984148580102,304.41173495509474,40.37317481913436C303.3450682884281,40.284285930245474,301.1672905106503,40.95095259691213,300.0117349550947,40.86206370802324C299.92284606620586,40.95095259691213,299.92284606620586,40.99539704135658,299.92284606620586,40.99539704135658C299.92284606620586,41.12873037468991,300.45617939953917,41.35095259691214,301.5672905106503,41.66206370802325C302.5006238439836,41.66206370802325,304.633957177317,42.062063708023246,302.94506828842805,42.63984148580103C302.54506828842807,43.26206370802325,301.4339571773169,42.906508152467694,300.45617939953917,42.906508152467694C299.2561793995392,42.684285930245466,297.21173495509476,41.66206370802325,297.21173495509476,40.23984148580102C297.21173495509476,40.23984148580102,297.21173495509476,40.23984148580102,297.21173495509476,40.23984148580102M302.5006238439836,38.23984148580102C301.52284606620583,38.32873037468991,299.4784016217614,38.46206370802325,299.61173495509473,39.39539704135658C300.6784016217614,39.306508152467686,302.54506828842807,39.6176192635788,303.12284606620585,39.12873037468991C302.9006238439836,38.55095259691214,303.0784016217614,38.55095259691214,302.5006238439836,38.23984148580102C302.5006238439836,38.23984148580102,302.5006238439836,38.23984148580102,302.5006238439836,38.23984148580102M315.8784016217614,37.57317481913436C315.9672905106503,38.55095259691214,316.1006238439836,38.0176192635788,315.2561793995392,38.59539704135658C312.01173495509477,38.284285930245474,307.8784016217614,37.57317481913436,307.52284606620583,41.08428593024547C307.1672905106503,41.35095259691214,307.3895127328725,41.97317481913436,307.1672905106503,42.684285930245466C305.8784016217614,43.12873037468991,305.3895127328725,42.284285930245474,305.70062384398364,40.63984148580103C305.9672905106503,39.26206370802325,306.01173495509477,37.57317481913436,307.12284606620585,38.19539704135658C309.70062384398364,36.55095259691214,310.0561793995392,36.32873037468991,314.9006238439836,37.35095259691214C315.03395717731695,37.57317481913436,315.5672905106503,37.528730374689914,315.8784016217614,37.57317481913436C315.8784016217614,37.57317481913436,315.8784016217614,37.57317481913436,315.8784016217614,37.57317481913436M316.3672905106503,37.12873037468991C316.3672905106503,37.12873037468991,318.67840162176145,40.284285930245474,318.67840162176145,40.284285930245474C320.5450682884281,39.57317481913436,321.78951273287254,37.88428593024547,324.1895127328726,37.395397041356574C324.41173495509474,37.57317481913436,324.5450682884281,37.70650815246769,324.5450682884281,37.88428593024547C324.1895127328726,38.72873037468992,324.3672905106503,38.23984148580102,323.07840162176143,39.306508152467686C323.07840162176143,39.35095259691214,323.033957177317,39.439841485801026,323.033957177317,39.528730374689914C320.3228460662059,41.528730374689914,318.9006238439837,42.55095259691214,318.7228460662059,42.55095259691214C316.9450682884281,41.88428593024547,316.50062384398365,39.35095259691214,315.70062384398364,38.10650815246769C315.96729051065034,37.48428593024547,316.1450682884281,37.12873037468991,316.3672905106503,37.12873037468991C316.3672905106503,37.12873037468991,316.3672905106503,37.12873037468991,316.3672905106503,37.12873037468991M324.9895127328726,40.23984148580102C324.9895127328726,37.66206370802325,327.25617939953923,37.08428593024547,329.87840162176144,36.95095259691213C331.34506828842814,36.906508152467694,331.87840162176144,37.66206370802325,332.50062384398365,38.50650815246769C332.5450682884281,39.12873037468991,332.58951273287255,40.23984148580102,332.1895127328726,40.37317481913436C331.1228460662059,40.284285930245474,328.9450682884281,40.95095259691213,327.78951273287254,40.86206370802324C327.7006238439837,40.95095259691213,327.7006238439837,40.99539704135658,327.7006238439837,40.99539704135658C327.7006238439837,41.12873037468991,328.233957177317,41.35095259691214,329.34506828842814,41.66206370802325C330.2784016217614,41.66206370802325,332.4117349550948,42.062063708023246,330.7228460662059,42.63984148580103C330.3228460662059,43.26206370802325,329.21173495509476,42.906508152467694,328.233957177317,42.906508152467694C327.033957177317,42.684285930245466,324.9895127328726,41.66206370802325,324.9895127328726,40.23984148580102C324.9895127328726,40.23984148580102,324.9895127328726,40.23984148580102,324.9895127328726,40.23984148580102M330.2784016217614,38.23984148580102C329.30062384398366,38.32873037468991,327.25617939953923,38.46206370802325,327.38951273287256,39.39539704135658C328.4561793995392,39.306508152467686,330.3228460662059,39.6176192635788,330.9006238439837,39.12873037468991C330.67840162176145,38.55095259691214,330.8561793995392,38.55095259691214,330.2784016217614,38.23984148580102C330.2784016217614,38.23984148580102,330.2784016217614,38.23984148580102,330.2784016217614,38.23984148580102M343.65617939953916,37.57317481913436C343.74506828842806,38.55095259691214,343.8784016217614,38.0176192635788,343.03395717731695,38.59539704135658C339.78951273287254,38.284285930245474,335.65617939953916,37.57317481913436,335.3006238439836,41.08428593024547C334.94506828842805,41.35095259691214,335.1672905106503,41.97317481913436,334.94506828842805,42.684285930245466C333.65617939953916,43.12873037468991,333.1672905106503,42.284285930245474,333.4784016217614,40.63984148580103C333.74506828842806,39.26206370802325,333.78951273287254,37.57317481913436,334.9006238439836,38.19539704135658C337.4784016217614,36.55095259691214,337.83395717731696,36.32873037468991,342.6784016217614,37.35095259691214C342.8117349550947,37.57317481913436,343.3450682884281,37.528730374689914,343.65617939953916,37.57317481913436C343.65617939953916,37.57317481913436,343.65617939953916,37.57317481913436,343.65617939953916,37.57317481913436" style="-webkit-tap-highlight-color: rgba(0, 0, 0, 0);"></path><path fill="#ffffff" stroke="#000000" d="M276.6421655370447,349.63990090906174C289.63418094525844,346.5567041637367,285.7257055797358,352.7230976543868,353.72208417017043,349.63990090906174C355.06620581002215,364.08700958998406,352.3779625303187,378.77681038404404,353.72208417017043,383.24294190535517C293.1888664878784,386.3261386506802,311.2022119122783,380.1597451600301,276.6421655370447,383.24294190535517C277.98628717689644,373.35439711020376,275.298043897193,377.3461781882032,276.6421655370447,349.63990090906174" stroke-width="2" style="-webkit-tap-highlight-color: rgba(0, 0, 0, 0);"></path><rect x="286.6421655370447" y="360.2352979504184" width="57.0799186331256" height="12.412246913580134" rx="0" ry="0" fill="#ffffff" stroke="none" style="-webkit-tap-highlight-color: rgba(0, 0, 0, 0);"></rect><path fill="#000000" stroke="none" d="M287.21173495509476,372.27974239486286C286.9006238439836,372.14640906152954,286.233957177317,371.4797423948628,286.9895127328725,371.3019646170851C290.01173495509477,370.63529795041836,292.2784016217614,369.8797423948628,293.83395717731696,369.3019646170851C296.1006238439836,368.45752017264056,295.5672905106503,367.7908535059739,293.9672905106503,366.9464090615295C291.92284606620586,365.8352979504184,290.32284606620584,365.6130757281961,288.58951273287255,364.10196461708506C287.12284606620585,362.81307572819617,286.3672905106503,362.5464090615295,287.4784016217614,361.5241868393073C289.12284606620585,360.63529795041836,292.7672905106503,360.2352979504184,295.5228460662059,360.2352979504184C296.8117349550948,360.2352979504184,297.4784016217614,360.50196461708504,297.4784016217614,361.03529795041834C297.07840162176143,362.1908535059739,294.7228460662059,361.3019646170851,292.8561793995392,361.6575201726406C292.1006238439836,361.74640906152945,289.6561793995392,361.92418683930725,288.7672905106503,362.3686312837517C290.41173495509474,364.7241868393073,294.633957177317,364.9464090615295,296.7672905106503,367.3019646170851C297.12284606620585,367.7019646170851,297.2561793995392,368.1908535059739,297.2561793995392,368.63529795041836C297.07840162176143,369.39085350597395,296.233957177317,370.1908535059739,295.3895127328725,370.14640906152954C294.45617939953917,370.85752017264065,294.633957177317,370.1908535059739,293.21173495509476,370.901964617085C292.58951273287255,371.21307572819615,291.3895127328725,371.3019646170851,290.7228460662059,371.7908535059739C289.61173495509473,371.6575201726406,288.54506828842807,372.2352979504184,287.21173495509476,372.27974239486286C287.21173495509476,372.27974239486286,287.21173495509476,372.27974239486286,287.21173495509476,372.27974239486286M297.21173495509476,369.8797423948628C297.21173495509476,367.3019646170851,299.4784016217614,366.7241868393073,302.1006238439836,366.590853505974C303.5672905106503,366.5464090615295,304.1006238439836,367.3019646170851,304.7228460662058,368.14640906152954C304.7672905106503,368.7686312837517,304.8117349550947,369.8797423948628,304.41173495509474,370.0130757281962C303.3450682884281,369.92418683930725,301.1672905106503,370.590853505974,300.0117349550947,370.50196461708504C299.92284606620586,370.590853505974,299.92284606620586,370.63529795041836,299.92284606620586,370.63529795041836C299.92284606620586,370.7686312837517,300.45617939953917,370.990853505974,301.5672905106503,371.3019646170851C302.5006238439836,371.3019646170851,304.633957177317,371.7019646170851,302.94506828842805,372.27974239486286C302.54506828842807,372.901964617085,301.4339571773169,372.5464090615295,300.45617939953917,372.5464090615295C299.2561793995392,372.32418683930723,297.21173495509476,371.3019646170851,297.21173495509476,369.8797423948628C297.21173495509476,369.8797423948628,297.21173495509476,369.8797423948628,297.21173495509476,369.8797423948628M302.5006238439836,367.8797423948628C301.52284606620583,367.96863128375173,299.4784016217614,368.10196461708506,299.61173495509473,369.03529795041834C300.6784016217614,368.9464090615295,302.54506828842807,369.2575201726406,303.12284606620585,368.7686312837517C302.9006238439836,368.1908535059739,303.0784016217614,368.1908535059739,302.5006238439836,367.8797423948628C302.5006238439836,367.8797423948628,302.5006238439836,367.8797423948628,302.5006238439836,367.8797423948628M315.8784016217614,367.21307572819615C315.9672905106503,368.1908535059739,316.1006238439836,367.6575201726406,315.2561793995392,368.2352979504184C312.01173495509477,367.92418683930725,307.8784016217614,367.21307572819615,307.52284606620583,370.7241868393073C307.1672905106503,370.990853505974,307.3895127328725,371.6130757281961,307.1672905106503,372.32418683930723C305.8784016217614,372.7686312837517,305.3895127328725,371.92418683930725,305.70062384398364,370.27974239486286C305.9672905106503,368.901964617085,306.01173495509477,367.21307572819615,307.12284606620585,367.8352979504184C309.70062384398364,366.1908535059739,310.0561793995392,365.96863128375173,314.9006238439836,366.990853505974C315.03395717731695,367.21307572819615,315.5672905106503,367.16863128375167,315.8784016217614,367.21307572819615C315.8784016217614,367.21307572819615,315.8784016217614,367.21307572819615,315.8784016217614,367.21307572819615M316.3672905106503,366.7686312837517C316.3672905106503,366.7686312837517,318.67840162176145,369.92418683930725,318.67840162176145,369.92418683930725C320.5450682884281,369.21307572819615,321.78951273287254,367.5241868393073,324.1895127328726,367.03529795041834C324.41173495509474,367.21307572819615,324.5450682884281,367.34640906152947,324.5450682884281,367.5241868393073C324.1895127328726,368.3686312837517,324.3672905106503,367.8797423948628,323.07840162176143,368.9464090615295C323.07840162176143,368.990853505974,323.033957177317,369.0797423948628,323.033957177317,369.16863128375167C320.3228460662059,371.16863128375167,318.9006238439837,372.1908535059739,318.7228460662059,372.1908535059739C316.9450682884281,371.5241868393073,316.50062384398365,368.990853505974,315.70062384398364,367.74640906152945C315.96729051065034,367.1241868393073,316.1450682884281,366.7686312837517,316.3672905106503,366.7686312837517C316.3672905106503,366.7686312837517,316.3672905106503,366.7686312837517,316.3672905106503,366.7686312837517M324.9895127328726,369.8797423948628C324.9895127328726,367.3019646170851,327.25617939953923,366.7241868393073,329.87840162176144,366.590853505974C331.34506828842814,366.5464090615295,331.87840162176144,367.3019646170851,332.50062384398365,368.14640906152954C332.5450682884281,368.7686312837517,332.58951273287255,369.8797423948628,332.1895127328726,370.0130757281962C331.1228460662059,369.92418683930725,328.9450682884281,370.590853505974,327.78951273287254,370.50196461708504C327.7006238439837,370.590853505974,327.7006238439837,370.63529795041836,327.7006238439837,370.63529795041836C327.7006238439837,370.7686312837517,328.233957177317,370.990853505974,329.34506828842814,371.3019646170851C330.2784016217614,371.3019646170851,332.4117349550948,371.7019646170851,330.7228460662059,372.27974239486286C330.3228460662059,372.901964617085,329.21173495509476,372.5464090615295,328.233957177317,372.5464090615295C327.033957177317,372.32418683930723,324.9895127328726,371.3019646170851,324.9895127328726,369.8797423948628C324.9895127328726,369.8797423948628,324.9895127328726,369.8797423948628,324.9895127328726,369.8797423948628M330.2784016217614,367.8797423948628C329.30062384398366,367.96863128375173,327.25617939953923,368.10196461708506,327.38951273287256,369.03529795041834C328.4561793995392,368.9464090615295,330.3228460662059,369.2575201726406,330.9006238439837,368.7686312837517C330.67840162176145,368.1908535059739,330.8561793995392,368.1908535059739,330.2784016217614,367.8797423948628C330.2784016217614,367.8797423948628,330.2784016217614,367.8797423948628,330.2784016217614,367.8797423948628M343.65617939953916,367.21307572819615C343.74506828842806,368.1908535059739,343.8784016217614,367.6575201726406,343.03395717731695,368.2352979504184C339.78951273287254,367.92418683930725,335.65617939953916,367.21307572819615,335.3006238439836,370.7241868393073C334.94506828842805,370.990853505974,335.1672905106503,371.6130757281961,334.94506828842805,372.32418683930723C333.65617939953916,372.7686312837517,333.1672905106503,371.92418683930725,333.4784016217614,370.27974239486286C333.74506828842806,368.901964617085,333.78951273287254,367.21307572819615,334.9006238439836,367.8352979504184C337.4784016217614,366.1908535059739,337.83395717731696,365.96863128375173,342.6784016217614,366.990853505974C342.8117349550947,367.21307572819615,343.3450682884281,367.16863128375167,343.65617939953916,367.21307572819615C343.65617939953916,367.21307572819615,343.65617939953916,367.21307572819615,343.65617939953916,367.21307572819615" style="-webkit-tap-highlight-color: rgba(0, 0, 0, 0);"></path><path fill="none" stroke="#000000" d="M315.18212485360755,53.60304099629341C327.02359925011825,298.6261131048696,303.34065045709684,191.93297548897198,315.18212485360755,349.6399009090617" stroke-width="2" style="-webkit-tap-highlight-color: rgba(0, 0, 0, 0);"></path><path fill="#ffffff" stroke="#000000" d="M20,73.6030409962934C153.90983700016378,67.35222012720652,153.98092517716609,79.85386186538028,176.27052172717214,73.6030409962934C174.16047515960148,104.07253072810117,178.3805682947428,93.19522607028725,176.27052172717214,126.35420518555999C88.66280751553695,132.60502605464688,71.28985620867226,120.10338431647311,20,126.35420518555999C17.889953432429337,128.0493587838973,22.110046567570663,80.48252172097536,20,73.6030409962934" stroke-width="2" style="-webkit-tap-highlight-color: rgba(0, 0, 0, 0);"></path><rect x="25.00000000000003" y="78.6030409962934" width="146.2705217271721" height="42.7511641892666" rx="0" ry="0" fill="#ffffff" stroke="none" style="-webkit-tap-highlight-color: rgba(0, 0, 0, 0);"></rect><path fill="#000000" stroke="none" d="M25.00000000000003,89.85345005222385C25.00000000000003,87.27567227444607,27.266666666666694,86.6978944966683,29.888888888888914,86.56456116333496C31.355555555555583,86.5201167188905,31.888888888888914,87.27567227444607,32.511111111111134,88.12011671889051C32.555555555555586,88.74233894111273,32.60000000000002,89.85345005222385,32.20000000000003,89.98678338555717C31.13333333333337,89.89789449666829,28.95555555555559,90.56456116333496,27.800000000000026,90.47567227444607C27.711111111111137,90.56456116333496,27.711111111111137,90.60900560777941,27.711111111111137,90.60900560777941C27.711111111111137,90.74233894111273,28.24444444444447,90.96456116333496,29.355555555555583,91.27567227444607C30.28888888888892,91.27567227444607,32.422222222222246,91.67567227444607,30.733333333333363,92.25345005222384C30.333333333333357,92.87567227444607,29.222222222222257,92.52011671889052,28.24444444444447,92.52011671889052C27.04444444444448,92.29789449666829,25.00000000000003,91.27567227444607,25.00000000000003,89.85345005222385C25.00000000000003,89.85345005222385,25.00000000000003,89.85345005222385,25.00000000000003,89.85345005222385M30.28888888888892,87.85345005222385C29.311111111111146,87.94233894111274,27.266666666666694,88.07567227444606,27.400000000000034,89.0090056077794C28.466666666666697,88.92011671889051,30.333333333333357,89.23122783000163,30.91111111111114,88.74233894111273C30.688888888888926,88.16456116333495,30.866666666666703,88.16456116333495,30.28888888888892,87.85345005222385C30.28888888888892,87.85345005222385,30.28888888888892,87.85345005222385,30.28888888888892,87.85345005222385M38.422222222222246,89.89789449666829C38.8666666666667,90.07567227444606,41.04444444444448,91.72011671889051,41.311111111111146,92.12011671889051C41.35555555555558,92.43122783000163,41.04444444444448,92.87567227444607,40.7777777777778,92.87567227444607C40.7777777777778,92.87567227444607,38.11111111111114,91.54233894111273,38.11111111111114,91.54233894111273C37.13333333333337,91.63122783000162,36.24444444444447,92.47567227444607,35.22222222222226,92.38678338555718C33.75555555555559,92.56456116333496,32.20000000000003,89.4090056077794,34.555555555555586,88.78678338555719C36.37777777777781,87.58678338555718,38.82222222222225,87.05345005222385,39.44444444444447,89.18678338555718C39.44444444444447,89.45345005222384,39.266666666666694,89.72011671889051,38.95555555555558,89.89789449666829C37.48888888888892,88.78678338555719,35.9777777777778,89.67567227444607,35.04444444444448,90.43122783000163C35.48888888888892,91.14233894111274,37.75555555555559,89.63122783000162,38.422222222222246,89.89789449666829C38.422222222222246,89.89789449666829,38.422222222222246,89.89789449666829,38.422222222222246,89.89789449666829M47.31111111111113,86.92011671889051C48.60000000000002,86.60900560777941,48.95555555555558,88.2090056077794,47.84444444444448,88.38678338555718C46.644444444444474,88.2090056077794,46.06666666666669,88.65345005222385,44.33333333333336,89.4978944966683C43.9777777777778,89.67567227444607,43.75555555555559,89.98678338555717,43.62222222222225,90.47567227444607C44.95555555555558,91.89789449666829,47.666666666666686,90.60900560777941,49.57777777777781,90.96456116333496C49.800000000000026,91.54233894111273,49.22222222222224,92.12011671889051,48.60000000000002,91.8090056077794C46.33333333333336,92.92011671889051,42.422222222222246,93.05345005222385,41.933333333333366,90.47567227444607C42.20000000000003,88.25345005222384,45.00000000000003,86.83122783000162,47.31111111111113,86.92011671889051C47.31111111111113,86.92011671889051,47.31111111111113,86.92011671889051,47.31111111111113,86.92011671889051M54.688888888888926,78.60900560777941C55.177777777777806,78.5201167188905,55.13333333333338,79.45345005222384,55.177777777777806,79.4978944966683C54.688888888888926,81.8090056077794,53.400000000000034,85.4090056077794,52.82222222222225,87.89789449666829C52.5555555555556,89.23122783000163,52.422222222222274,89.54233894111273,52.422222222222274,89.98678338555717C53.62222222222226,89.98678338555717,57.444444444444485,88.47567227444607,58.77777777777783,88.47567227444607C60.644444444444474,88.47567227444607,60.155555555555594,90.56456116333496,60.51111111111115,91.98678338555717C60.51111111111115,92.16456116333495,60.28888888888892,92.74233894111273,59.80000000000004,92.6978944966683C59.97777777777782,92.78678338555719,60.28888888888892,92.83122783000162,59.97777777777782,92.96456116333496C58.911111111111154,92.92011671889051,58.73333333333338,91.45345005222384,58.8666666666667,90.12011671889051C58.82222222222225,90.07567227444606,58.77777777777783,89.98678338555717,58.644444444444474,89.89789449666829C56.37777777777782,89.89789449666829,53.75555555555559,91.58678338555718,51.444444444444485,92.16456116333495C51.04444444444448,92.2090056077794,50.77777777777783,91.4978944966683,50.73333333333338,91.14233894111274C51.48888888888894,87.18678338555718,52.4666666666667,84.87567227444607,53.888888888888914,79.4090056077794C53.888888888888914,79.0090056077794,54.155555555555594,78.56456116333496,54.688888888888926,78.60900560777941C54.688888888888926,78.60900560777941,54.688888888888926,78.60900560777941,54.688888888888926,78.60900560777941M75.04444444444448,86.92011671889051C76.33333333333337,86.60900560777941,76.68888888888893,88.2090056077794,75.57777777777781,88.38678338555718C74.3777777777778,88.2090056077794,73.80000000000004,88.65345005222385,72.06666666666669,89.4978944966683C71.71111111111114,89.67567227444607,71.48888888888891,89.98678338555717,71.35555555555558,90.47567227444607C72.68888888888893,91.89789449666829,75.40000000000003,90.60900560777941,77.31111111111113,90.96456116333496C77.53333333333336,91.54233894111273,76.95555555555558,92.12011671889051,76.33333333333337,91.8090056077794C74.06666666666669,92.92011671889051,70.1555555555556,93.05345005222385,69.66666666666669,90.47567227444607C69.93333333333337,88.25345005222384,72.73333333333335,86.83122783000162,75.04444444444448,86.92011671889051C75.04444444444448,86.92011671889051,75.04444444444448,86.92011671889051,75.04444444444448,86.92011671889051M82.77777777777783,86.2090056077794C85.08888888888893,85.14233894111274,87.40000000000003,87.0090056077794,87.40000000000003,89.0090056077794C87.40000000000003,91.63122783000162,84.4666666666667,91.98678338555717,82.33333333333337,92.6978944966683C80.02222222222227,92.60900560777941,77.22222222222226,90.47567227444607,78.77777777777783,88.03122783000163C79.80000000000004,87.23122783000163,81.08888888888893,86.47567227444607,82.77777777777783,86.2090056077794C82.77777777777783,86.2090056077794,82.77777777777783,86.2090056077794,82.77777777777783,86.2090056077794M79.97777777777782,89.72011671889051C80.68888888888893,92.12011671889051,85.53333333333336,90.43122783000163,85.80000000000004,88.6978944966683C85.26666666666671,86.07567227444606,80.06666666666672,88.34233894111273,79.97777777777782,89.72011671889051C79.97777777777782,89.72011671889051,79.97777777777782,89.72011671889051,79.97777777777782,89.72011671889051M93.00000000000003,86.34233894111273C94.64444444444447,86.60900560777941,95.75555555555559,88.74233894111273,95.75555555555559,91.27567227444607C95.75555555555559,92.6978944966683,95.04444444444448,92.38678338555718,94.37777777777782,92.03122783000163C93.57777777777781,90.6978944966683,94.1555555555556,90.03122783000163,93.40000000000003,88.25345005222384C91.75555555555559,87.67567227444607,90.2444444444445,90.6978944966683,89.31111111111116,91.14233894111274C88.42222222222227,91.0090056077794,87.57777777777781,89.4090056077794,88.37777777777782,88.38678338555718C88.4666666666667,87.85345005222385,88.51111111111115,87.72011671889051,88.8666666666667,87.05345005222385C89.40000000000003,86.6978944966683,89.75555555555559,87.54233894111273,90.1555555555556,87.58678338555718C90.1555555555556,87.58678338555718,93.00000000000003,86.34233894111273,93.00000000000003,86.34233894111273M101.62222222222226,86.34233894111273C103.26666666666671,86.60900560777941,104.37777777777782,88.74233894111273,104.37777777777782,91.27567227444607C104.37777777777782,92.6978944966683,103.66666666666671,92.38678338555718,103.00000000000006,92.03122783000163C102.20000000000005,90.6978944966683,102.77777777777783,90.03122783000163,102.02222222222227,88.25345005222384C100.37777777777782,87.67567227444607,98.86666666666673,90.6978944966683,97.9333333333334,91.14233894111274C97.04444444444451,91.0090056077794,96.20000000000005,89.4090056077794,97.00000000000006,88.38678338555718C97.08888888888893,87.85345005222385,97.13333333333338,87.72011671889051,97.48888888888894,87.05345005222385C98.02222222222227,86.6978944966683,98.37777777777782,87.54233894111273,98.77777777777783,87.58678338555718C98.77777777777783,87.58678338555718,101.62222222222226,86.34233894111273,101.62222222222226,86.34233894111273M105.04444444444448,89.85345005222385C105.04444444444448,87.27567227444607,107.31111111111116,86.6978944966683,109.93333333333337,86.56456116333496C111.40000000000003,86.5201167188905,111.93333333333337,87.27567227444607,112.5555555555556,88.12011671889051C112.60000000000002,88.74233894111273,112.64444444444447,89.85345005222385,112.24444444444447,89.98678338555717C111.1777777777778,89.89789449666829,109.00000000000003,90.56456116333496,107.84444444444449,90.47567227444607C107.75555555555559,90.56456116333496,107.75555555555559,90.60900560777941,107.75555555555559,90.60900560777941C107.75555555555559,90.74233894111273,108.28888888888892,90.96456116333496,109.40000000000003,91.27567227444607C110.33333333333337,91.27567227444607,112.4666666666667,91.67567227444607,110.7777777777778,92.25345005222384C110.37777777777782,92.87567227444607,109.26666666666671,92.52011671889052,108.28888888888892,92.52011671889052C107.08888888888893,92.29789449666829,105.04444444444448,91.27567227444607,105.04444444444448,89.85345005222385C105.04444444444448,89.85345005222385,105.04444444444448,89.85345005222385,105.04444444444448,89.85345005222385M110.33333333333337,87.85345005222385C109.35555555555558,87.94233894111274,107.31111111111116,88.07567227444606,107.44444444444449,89.0090056077794C108.51111111111115,88.92011671889051,110.37777777777782,89.23122783000163,110.9555555555556,88.74233894111273C110.73333333333338,88.16456116333495,110.91111111111115,88.16456116333495,110.33333333333337,87.85345005222385C110.33333333333337,87.85345005222385,110.33333333333337,87.85345005222385,110.33333333333337,87.85345005222385M118.64444444444447,86.92011671889051C119.93333333333337,86.60900560777941,120.28888888888892,88.2090056077794,119.1777777777778,88.38678338555718C117.97777777777779,88.2090056077794,117.40000000000003,88.65345005222385,115.66666666666669,89.4978944966683C115.31111111111113,89.67567227444607,115.0888888888889,89.98678338555717,114.95555555555558,90.47567227444607C116.28888888888892,91.89789449666829,119.00000000000003,90.60900560777941,120.91111111111113,90.96456116333496C121.13333333333335,91.54233894111273,120.55555555555557,92.12011671889051,119.93333333333337,91.8090056077794C117.66666666666669,92.92011671889051,113.75555555555559,93.05345005222385,113.26666666666668,90.47567227444607C113.53333333333336,88.25345005222384,116.33333333333334,86.83122783000162,118.64444444444447,86.92011671889051C118.64444444444447,86.92011671889051,118.64444444444447,86.92011671889051,118.64444444444447,86.92011671889051M125.35555555555558,85.72011671889051C125.80000000000004,83.89789449666829,126.91111111111115,80.12011671889051,128.24444444444447,79.76456116333496C128.42222222222225,79.8090056077794,129.31111111111113,80.60900560777941,128.73333333333338,81.36456116333495C127.97777777777782,82.34233894111273,127.44444444444449,83.89789449666829,127.13333333333335,85.98678338555717C128.28888888888892,86.34233894111273,129.35555555555558,85.67567227444607,130.37777777777782,86.2090056077794C131.00000000000003,86.2090056077794,131.35555555555558,86.34233894111273,131.35555555555558,86.60900560777941C131.31111111111116,87.45345005222384,129.40000000000003,87.4090056077794,128.82222222222225,87.63122783000162C128.37777777777782,87.67567227444607,126.7777777777778,87.63122783000162,126.42222222222225,88.07567227444606C125.97777777777782,89.14233894111274,126.24444444444447,91.05345005222385,125.53333333333336,92.43122783000163C124.60000000000002,92.29789449666829,124.37777777777782,92.47567227444607,124.37777777777782,91.54233894111273C124.37777777777782,91.14233894111274,124.4666666666667,89.94233894111274,124.73333333333338,87.94233894111274C124.06666666666669,87.36456116333495,121.13333333333335,88.34233894111273,121.31111111111113,86.74233894111273C121.48888888888891,85.05345005222385,124.4666666666667,87.0090056077794,125.35555555555558,85.72011671889051C125.35555555555558,85.72011671889051,125.35555555555558,85.72011671889051,125.35555555555558,85.72011671889051M132.95555555555558,83.09789449666829C133.26666666666668,83.89789449666829,133.35555555555558,84.12011671889051,132.73333333333335,84.78678338555719C131.71111111111114,84.5201167188905,131.8,83.98678338555717,132.24444444444447,83.18678338555718C132.33333333333334,83.18678338555718,132.60000000000002,83.14233894111274,132.95555555555558,83.09789449666829C132.95555555555558,83.09789449666829,132.95555555555558,83.09789449666829,132.95555555555558,83.09789449666829M131.71111111111114,92.07567227444606C130.91111111111113,91.14233894111274,131.35555555555558,88.83122783000162,131.66666666666669,87.36456116333495C131.9777777777778,86.92011671889051,132.55555555555557,87.0090056077794,132.6888888888889,87.63122783000162C132.64444444444447,89.23122783000163,133.00000000000003,90.83122783000162,132.60000000000002,92.25345005222384C132.24444444444447,92.34233894111273,132.24444444444447,92.25345005222384,131.71111111111114,92.07567227444606C131.71111111111114,92.07567227444606,131.71111111111114,92.07567227444606,131.71111111111114,92.07567227444606M138.5555555555556,86.2090056077794C140.8666666666667,85.14233894111274,143.1777777777778,87.0090056077794,143.1777777777778,89.0090056077794C143.1777777777778,91.63122783000162,140.24444444444447,91.98678338555717,138.11111111111114,92.6978944966683C135.80000000000004,92.60900560777941,133.00000000000003,90.47567227444607,134.5555555555556,88.03122783000163C135.5777777777778,87.23122783000163,136.8666666666667,86.47567227444607,138.5555555555556,86.2090056077794C138.5555555555556,86.2090056077794,138.5555555555556,86.2090056077794,138.5555555555556,86.2090056077794M135.7555555555556,89.72011671889051C136.4666666666667,92.12011671889051,141.31111111111113,90.43122783000163,141.5777777777778,88.6978944966683C141.04444444444448,86.07567227444606,135.8444444444445,88.34233894111273,135.7555555555556,89.72011671889051C135.7555555555556,89.72011671889051,135.7555555555556,89.72011671889051,135.7555555555556,89.72011671889051M148.7777777777778,86.34233894111273C150.42222222222225,86.60900560777941,151.53333333333336,88.74233894111273,151.53333333333336,91.27567227444607C151.53333333333336,92.6978944966683,150.82222222222225,92.38678338555718,150.1555555555556,92.03122783000163C149.35555555555558,90.6978944966683,149.93333333333337,90.03122783000163,149.1777777777778,88.25345005222384C147.53333333333336,87.67567227444607,146.02222222222227,90.6978944966683,145.08888888888893,91.14233894111274C144.20000000000005,91.0090056077794,143.35555555555558,89.4090056077794,144.1555555555556,88.38678338555718C144.24444444444447,87.85345005222385,144.28888888888892,87.72011671889051,144.64444444444447,87.05345005222385C145.1777777777778,86.6978944966683,145.53333333333336,87.54233894111273,145.93333333333337,87.58678338555718C145.93333333333337,87.58678338555718,148.7777777777778,86.34233894111273,148.7777777777778,86.34233894111273M162.73333333333338,83.09789449666829C163.04444444444448,83.89789449666829,163.13333333333338,84.12011671889051,162.51111111111115,84.78678338555719C161.48888888888894,84.5201167188905,161.5777777777778,83.98678338555717,162.02222222222227,83.18678338555718C162.11111111111114,83.18678338555718,162.37777777777782,83.14233894111274,162.73333333333338,83.09789449666829C162.73333333333338,83.09789449666829,162.73333333333338,83.09789449666829,162.73333333333338,83.09789449666829M161.48888888888894,92.07567227444606C160.68888888888893,91.14233894111274,161.13333333333338,88.83122783000162,161.44444444444449,87.36456116333495C161.7555555555556,86.92011671889051,162.33333333333337,87.0090056077794,162.4666666666667,87.63122783000162C162.42222222222227,89.23122783000163,162.77777777777783,90.83122783000162,162.37777777777782,92.25345005222384C162.02222222222227,92.34233894111273,162.02222222222227,92.25345005222384,161.48888888888894,92.07567227444606C161.48888888888894,92.07567227444606,161.48888888888894,92.07567227444606,161.48888888888894,92.07567227444606M170.3777777777778,85.67567227444607C171.22222222222226,85.72011671889051,171.5777777777778,86.74233894111273,170.95555555555558,87.09789449666829C170.7777777777778,87.14233894111274,169.97777777777782,87.27567227444607,168.60000000000002,87.4090056077794C167.8888888888889,87.76456116333496,167.62222222222226,87.32011671889052,166.8666666666667,87.8090056077794C167.8888888888889,88.74233894111273,170.82222222222225,88.52011671889052,171.13333333333335,90.56456116333496C170.55555555555557,91.63122783000162,167.35555555555558,92.12011671889051,165.62222222222226,92.43122783000163C165.22222222222226,92.29789449666829,164.82222222222225,92.29789449666829,164.42222222222225,92.43122783000163C164.1555555555556,92.25345005222384,163.4888888888889,91.72011671889051,164.0666666666667,91.32011671889052C165.40000000000003,91.05345005222385,167.7555555555556,90.74233894111273,168.60000000000002,90.25345005222384C167.84444444444446,89.54233894111273,165.04444444444448,88.78678338555719,164.28888888888892,88.12011671889051C164.1555555555556,88.03122783000163,164.11111111111114,87.8090056077794,164.11111111111114,87.45345005222384C163.84444444444446,87.18678338555718,164.24444444444447,86.87567227444607,164.7777777777778,86.65345005222385C165.7555555555556,86.25345005222384,168.95555555555558,85.63122783000162,170.3777777777778,85.67567227444607C170.3777777777778,85.67567227444607,170.3777777777778,85.67567227444607,170.3777777777778,85.67567227444607M27.57777777777781,105.10238338555718C27.888888888888914,105.90238338555717,27.977777777777803,106.1246056077794,27.355555555555583,106.79127227444607C26.333333333333357,106.52460560777939,26.422222222222246,105.99127227444606,26.866666666666703,105.19127227444606C26.95555555555559,105.19127227444606,27.222222222222257,105.14682783000163,27.57777777777781,105.10238338555718C27.57777777777781,105.10238338555718,27.57777777777781,105.10238338555718,27.57777777777781,105.10238338555718M26.333333333333357,114.08016116333495C25.53333333333336,113.14682783000163,25.977777777777803,110.83571671889051,26.28888888888892,109.36905005222384C26.600000000000023,108.9246056077794,27.177777777777806,109.01349449666829,27.311111111111146,109.6357167188905C27.266666666666694,111.23571671889052,27.62222222222225,112.83571671889051,27.222222222222257,114.25793894111273C26.866666666666703,114.34682783000162,26.866666666666703,114.25793894111273,26.333333333333357,114.08016116333495C26.333333333333357,114.08016116333495,26.333333333333357,114.08016116333495,26.333333333333357,114.08016116333495M33.75555555555559,108.34682783000162C35.400000000000034,108.6134944966683,36.51111111111115,110.74682783000162,36.51111111111115,113.28016116333495C36.51111111111115,114.70238338555718,35.800000000000026,114.39127227444607,35.13333333333337,114.03571671889051C34.33333333333337,112.70238338555718,34.91111111111114,112.03571671889051,34.15555555555558,110.25793894111273C32.51111111111115,109.68016116333496,31.00000000000003,112.70238338555718,30.06666666666669,113.14682783000163C29.177777777777806,113.01349449666829,28.333333333333357,111.41349449666829,29.13333333333337,110.39127227444607C29.222222222222257,109.85793894111274,29.266666666666694,109.7246056077794,29.62222222222225,109.05793894111274C30.15555555555558,108.70238338555718,30.51111111111115,109.54682783000162,30.91111111111114,109.59127227444607C30.91111111111114,109.59127227444607,33.75555555555559,108.34682783000162,33.75555555555559,108.34682783000162M46.95555555555558,105.45793894111273C46.95555555555558,103.90238338555717,46.20000000000003,100.52460560777939,48.022222222222254,101.28016116333495C48.33333333333336,105.10238338555718,47.933333333333366,106.56905005222384,48.022222222222254,110.03571671889051C47.84444444444448,110.1246056077794,47.6666666666667,110.96905005222385,47.22222222222226,110.74682783000162C44.4666666666667,110.43571671889052,40.37777777777781,110.39127227444607,39.00000000000003,112.03571671889051C39.266666666666694,112.79127227444607,40.24444444444447,113.19127227444606,41.266666666666694,113.19127227444606C41.9777777777778,113.19127227444606,45.71111111111114,112.5246056077794,47.133333333333354,112.39127227444607C47.44444444444447,112.6134944966683,46.8666666666667,113.28016116333495,46.688888888888926,113.36905005222384C45.62222222222225,113.7246056077794,41.266666666666694,115.23571671889052,39.44444444444447,114.48016116333496C38.022222222222254,114.25793894111273,36.68888888888891,112.1246056077794,37.84444444444448,110.9246056077794C39.400000000000034,109.28016116333495,43.08888888888892,108.88016116333496,46.644444444444474,109.01349449666829C46.688888888888926,108.03571671889051,46.95555555555558,106.83571671889051,46.95555555555558,105.45793894111273C46.95555555555558,105.45793894111273,46.95555555555558,105.45793894111273,46.95555555555558,105.45793894111273M48.95555555555559,111.85793894111274C48.95555555555559,109.28016116333495,51.22222222222226,108.70238338555718,53.84444444444449,108.56905005222384C55.31111111111116,108.52460560777939,55.84444444444449,109.28016116333495,56.4666666666667,110.1246056077794C56.51111111111115,110.74682783000162,56.5555555555556,111.85793894111274,56.155555555555594,111.99127227444606C55.08888888888893,111.90238338555717,52.911111111111154,112.56905005222384,51.75555555555559,112.48016116333496C51.666666666666714,112.56905005222384,51.666666666666714,112.6134944966683,51.666666666666714,112.6134944966683C51.666666666666714,112.74682783000162,52.200000000000045,112.96905005222385,53.31111111111116,113.28016116333495C54.24444444444447,113.28016116333495,56.37777777777782,113.68016116333496,54.688888888888926,114.25793894111273C54.28888888888892,114.88016116333496,53.177777777777806,114.5246056077794,52.200000000000045,114.5246056077794C51.00000000000003,114.30238338555718,48.95555555555559,113.28016116333495,48.95555555555559,111.85793894111274C48.95555555555559,111.85793894111274,48.95555555555559,111.85793894111274,48.95555555555559,111.85793894111274M54.24444444444447,109.85793894111274C53.26666666666671,109.94682783000162,51.22222222222226,110.08016116333495,51.35555555555558,111.01349449666829C52.422222222222246,110.9246056077794,54.28888888888892,111.23571671889052,54.8666666666667,110.74682783000162C54.644444444444474,110.16905005222384,54.82222222222225,110.16905005222384,54.24444444444447,109.85793894111274C54.24444444444447,109.85793894111274,54.24444444444447,109.85793894111274,54.24444444444447,109.85793894111274M60.51111111111115,115.01349449666829C60.06666666666669,115.54682783000162,60.155555555555594,120.21349449666829,59.444444444444485,121.3246056077794C58.7777777777778,121.41349449666829,58.60000000000002,121.3246056077794,58.155555555555594,120.74682783000162C58.155555555555594,117.36905005222384,58.5555555555556,115.7246056077794,59.13333333333338,112.21349449666829C59.75555555555559,111.01349449666829,60.688888888888926,111.94682783000162,60.7777777777778,112.79127227444607C60.7777777777778,113.14682783000163,60.644444444444474,113.7246056077794,60.4666666666667,114.48016116333496C60.5555555555556,114.56905005222384,60.60000000000002,114.56905005222384,60.644444444444474,114.56905005222384C61.80000000000004,114.16905005222384,65.80000000000004,113.10238338555718,66.24444444444447,111.36905005222384C65.93333333333337,110.6134944966683,65.1777777777778,109.90238338555717,64.06666666666669,109.99127227444606C62.28888888888892,110.1246056077794,58.911111111111154,110.56905005222384,58.911111111111154,112.08016116333495C58.688888888888926,112.39127227444607,58.82222222222225,112.83571671889051,58.200000000000045,112.96905005222385C57.444444444444485,112.43571671889052,57.400000000000034,112.08016116333495,57.666666666666714,111.28016116333495C58.02222222222227,110.16905005222384,60.955555555555605,108.56905005222384,62.5555555555556,108.65793894111273C65.00000000000003,107.99127227444606,67.57777777777781,109.3246056077794,67.80000000000004,111.76905005222385C67.13333333333338,114.08016116333495,64.06666666666669,115.28016116333495,61.31111111111116,115.45793894111273C61.08888888888893,115.45793894111273,60.82222222222225,115.28016116333495,60.51111111111115,115.01349449666829C60.51111111111115,115.01349449666829,60.51111111111115,115.01349449666829,60.51111111111115,115.01349449666829M68.20000000000005,111.85793894111274C68.20000000000005,109.28016116333495,70.46666666666673,108.70238338555718,73.08888888888893,108.56905005222384C74.5555555555556,108.52460560777939,75.08888888888893,109.28016116333495,75.71111111111117,110.1246056077794C75.75555555555559,110.74682783000162,75.80000000000004,111.85793894111274,75.40000000000003,111.99127227444606C74.33333333333337,111.90238338555717,72.1555555555556,112.56905005222384,71.00000000000006,112.48016116333496C70.91111111111115,112.56905005222384,70.91111111111115,112.6134944966683,70.91111111111115,112.6134944966683C70.91111111111115,112.74682783000162,71.44444444444449,112.96905005222385,72.5555555555556,113.28016116333495C73.48888888888894,113.28016116333495,75.62222222222226,113.68016116333496,73.93333333333337,114.25793894111273C73.53333333333339,114.88016116333496,72.42222222222227,114.5246056077794,71.44444444444449,114.5246056077794C70.2444444444445,114.30238338555718,68.20000000000005,113.28016116333495,68.20000000000005,111.85793894111274C68.20000000000005,111.85793894111274,68.20000000000005,111.85793894111274,68.20000000000005,111.85793894111274M73.48888888888894,109.85793894111274C72.51111111111115,109.94682783000162,70.46666666666673,110.08016116333495,70.60000000000005,111.01349449666829C71.66666666666671,110.9246056077794,73.53333333333339,111.23571671889052,74.11111111111117,110.74682783000162C73.88888888888894,110.16905005222384,74.06666666666672,110.16905005222384,73.48888888888894,109.85793894111274C73.48888888888894,109.85793894111274,73.48888888888894,109.85793894111274,73.48888888888894,109.85793894111274M81.48888888888891,108.34682783000162C83.13333333333335,108.6134944966683,84.24444444444447,110.74682783000162,84.24444444444447,113.28016116333495C84.24444444444447,114.70238338555718,83.53333333333336,114.39127227444607,82.8666666666667,114.03571671889051C82.06666666666669,112.70238338555718,82.64444444444447,112.03571671889051,81.88888888888891,110.25793894111273C80.24444444444447,109.68016116333496,78.73333333333338,112.70238338555718,77.80000000000004,113.14682783000163C76.91111111111115,113.01349449666829,76.06666666666669,111.41349449666829,76.8666666666667,110.39127227444607C76.95555555555558,109.85793894111274,77.00000000000003,109.7246056077794,77.35555555555558,109.05793894111274C77.88888888888891,108.70238338555718,78.24444444444447,109.54682783000162,78.64444444444447,109.59127227444607C78.64444444444447,109.59127227444607,81.48888888888891,108.34682783000162,81.48888888888891,108.34682783000162M94.68888888888893,105.45793894111273C94.68888888888893,103.90238338555717,93.93333333333337,100.52460560777939,95.75555555555559,101.28016116333495C96.06666666666672,105.10238338555718,95.66666666666671,106.56905005222384,95.75555555555559,110.03571671889051C95.57777777777781,110.1246056077794,95.40000000000003,110.96905005222385,94.9555555555556,110.74682783000162C92.20000000000005,110.43571671889052,88.11111111111114,110.39127227444607,86.73333333333338,112.03571671889051C87.00000000000006,112.79127227444607,87.97777777777782,113.19127227444606,89.00000000000006,113.19127227444606C89.71111111111117,113.19127227444606,93.44444444444449,112.5246056077794,94.8666666666667,112.39127227444607C95.17777777777783,112.6134944966683,94.60000000000005,113.28016116333495,94.42222222222227,113.36905005222384C93.35555555555561,113.7246056077794,89.00000000000006,115.23571671889052,87.17777777777783,114.48016116333496C85.75555555555559,114.25793894111273,84.42222222222227,112.1246056077794,85.57777777777781,110.9246056077794C87.13333333333338,109.28016116333495,90.82222222222228,108.88016116333496,94.37777777777782,109.01349449666829C94.42222222222227,108.03571671889051,94.68888888888893,106.83571671889051,94.68888888888893,105.45793894111273C94.68888888888893,105.45793894111273,94.68888888888893,105.45793894111273,94.68888888888893,105.45793894111273M102.02222222222227,111.90238338555717C102.4666666666667,112.08016116333495,104.64444444444447,113.7246056077794,104.91111111111115,114.1246056077794C104.9555555555556,114.43571671889052,104.64444444444447,114.88016116333496,104.37777777777782,114.88016116333496C104.37777777777782,114.88016116333496,101.71111111111114,113.54682783000162,101.71111111111114,113.54682783000162C100.73333333333338,113.6357167188905,99.84444444444449,114.48016116333496,98.82222222222225,114.39127227444607C97.35555555555558,114.56905005222384,95.80000000000004,111.41349449666829,98.1555555555556,110.79127227444607C99.97777777777782,109.59127227444607,102.42222222222225,109.05793894111274,103.04444444444448,111.19127227444606C103.04444444444448,111.45793894111273,102.8666666666667,111.7246056077794,102.5555555555556,111.90238338555717C101.08888888888893,110.79127227444607,99.57777777777781,111.68016116333496,98.64444444444447,112.43571671889052C99.08888888888893,113.14682783000163,101.35555555555558,111.6357167188905,102.02222222222227,111.90238338555717C102.02222222222227,111.90238338555717,102.02222222222227,111.90238338555717,102.02222222222227,111.90238338555717M110.60000000000002,108.34682783000162C112.24444444444447,108.6134944966683,113.35555555555558,110.74682783000162,113.35555555555558,113.28016116333495C113.35555555555558,114.70238338555718,112.64444444444447,114.39127227444607,111.97777777777782,114.03571671889051C111.1777777777778,112.70238338555718,111.75555555555559,112.03571671889051,111.00000000000003,110.25793894111273C109.35555555555558,109.68016116333496,107.84444444444449,112.70238338555718,106.91111111111115,113.14682783000163C106.02222222222227,113.01349449666829,105.1777777777778,111.41349449666829,105.97777777777782,110.39127227444607C106.06666666666669,109.85793894111274,106.11111111111114,109.7246056077794,106.4666666666667,109.05793894111274C107.00000000000003,108.70238338555718,107.35555555555558,109.54682783000162,107.75555555555559,109.59127227444607C107.75555555555559,109.59127227444607,110.60000000000002,108.34682783000162,110.60000000000002,108.34682783000162M117.62222222222223,107.7246056077794C118.06666666666669,105.90238338555717,119.1777777777778,102.1246056077794,120.51111111111112,101.76905005222385C120.6888888888889,101.81349449666828,121.57777777777778,102.6134944966683,121.00000000000003,103.36905005222384C120.24444444444447,104.34682783000162,119.71111111111114,105.90238338555717,119.4,107.99127227444606C120.55555555555557,108.34682783000162,121.62222222222223,107.68016116333496,122.64444444444447,108.21349449666829C123.26666666666668,108.21349449666829,123.62222222222223,108.34682783000162,123.62222222222223,108.6134944966683C123.57777777777781,109.45793894111273,121.66666666666669,109.41349449666829,121.0888888888889,109.6357167188905C120.64444444444447,109.68016116333496,119.04444444444445,109.6357167188905,118.6888888888889,110.08016116333495C118.24444444444447,111.14682783000163,118.51111111111112,113.05793894111274,117.80000000000001,114.43571671889052C116.86666666666667,114.30238338555718,116.64444444444447,114.48016116333496,116.64444444444447,113.54682783000162C116.64444444444447,113.14682783000163,116.73333333333335,111.94682783000162,117.00000000000003,109.94682783000162C116.33333333333334,109.36905005222384,113.4,110.34682783000162,113.57777777777778,108.74682783000162C113.75555555555556,107.05793894111274,116.73333333333335,109.01349449666829,117.62222222222223,107.7246056077794C117.62222222222223,107.7246056077794,117.62222222222223,107.7246056077794,117.62222222222223,107.7246056077794" style="-webkit-tap-highlight-color: rgba(0, 0, 0, 0);"></path><rect x="255.72632329038984" y="151.35420518556" width="0" height="0" rx="0" ry="0" fill="#ffffff" stroke="none" style="-webkit-tap-highlight-color: rgba(0, 0, 0, 0);"></rect><path fill="#000000" stroke="none" d="M255.72632329038984,151.35420518556" style="-webkit-tap-highlight-color: rgba(0, 0, 0, 0);"></path><path fill="none" stroke="#000000" d="M196.27052172717214,146.35420518556C204.2348097927792,150.9765453832629,253.06043110755053,142.12289059296063,310.1889472035355,145.98523204988493" stroke-width="2" marker-end="url(#raphael-marker-endblock55-obj6835)" stroke-dasharray="0" style="-webkit-tap-highlight-color: rgba(0, 0, 0, 0);"></path><rect x="255.72632329038984" y="171.35420518556" width="0" height="0" rx="0" ry="0" fill="#ffffff" stroke="none" style="-webkit-tap-highlight-color: rgba(0, 0, 0, 0);"></rect><path fill="#000000" stroke="none" d="M255.72632329038984,171.35420518556" style="-webkit-tap-highlight-color: rgba(0, 0, 0, 0);"></path><path fill="none" stroke="#000000" d="M196.27052172717214,166.35420518556C239.00853891009993,170.83893771753552,282.07599890906,162.63809624671114,310.2318291398284,165.67340284281988" stroke-width="2" marker-end="url(#raphael-marker-endblock55-obj6838)" stroke-dasharray="0" style="-webkit-tap-highlight-color: rgba(0, 0, 0, 0);"></path><rect x="255.72632329038984" y="191.35420518556" width="0" height="0" rx="0" ry="0" fill="#ffffff" stroke="none" style="-webkit-tap-highlight-color: rgba(0, 0, 0, 0);"></rect><path fill="#000000" stroke="none" d="M255.72632329038984,191.35420518556" style="-webkit-tap-highlight-color: rgba(0, 0, 0, 0);"></path><path fill="none" stroke="#000000" d="M196.27052172717214,186.35420518556C194.6383965406258,190.9922222059407,245.4583114975294,182.06268064765894,310.1956866070707,186.0249696528914" stroke-width="2" marker-end="url(#raphael-marker-endblock55-obj6841)" stroke-dasharray="0" style="-webkit-tap-highlight-color: rgba(0, 0, 0, 0);"></path><rect x="255.72632329038984" y="211.35420518556" width="0" height="0" rx="0" ry="0" fill="#ffffff" stroke="none" style="-webkit-tap-highlight-color: rgba(0, 0, 0, 0);"></rect><path fill="#000000" stroke="none" d="M255.72632329038984,211.35420518556" style="-webkit-tap-highlight-color: rgba(0, 0, 0, 0);"></path><path fill="none" stroke="#000000" d="M196.27052172717214,206.35420518556C258.70571317526924,201.95540486678132,289.3355748858428,209.76069801055172,310.2589575307449,207.19727893516418" stroke-width="2" marker-end="url(#raphael-marker-endblock55-obj6844)" stroke-dasharray="0" style="-webkit-tap-highlight-color: rgba(0, 0, 0, 0);"></path><path fill="#ffffff" stroke="#000000" d="M186.27052172717214,226.35420518556C248.1096155644885,220.7977410605026,209.49537504162615,231.9106693106174,325.18212485360755,226.35420518556C326.1135526825476,235.95037228590928,324.2506970246675,226.61425595567692,325.18212485360755,249.6399009090617C195.04210584670136,244.0834367840043,272.35855412958523,255.1963650341191,186.27052172717214,249.6399009090617C185.33909389823208,233.082269906114,187.2019495561122,235.57243058654237,186.27052172717214,226.35420518556" stroke-width="2" style="-webkit-tap-highlight-color: rgba(0, 0, 0, 0);"></path><rect x="191.27052172717214" y="231.35420518555998" width="128.91160312643535" height="13.285695723501732" rx="0" ry="0" fill="#ffffff" stroke="none" style="-webkit-tap-highlight-color: rgba(0, 0, 0, 0);"></rect><path fill="#000000" stroke="none" d="M193.15990263138525,238.90976074111558C192.62656929805195,242.2430940744489,197.42656929805196,242.2875385188933,200.53768040916304,242.06531629667114C200.53768040916304,242.06531629667114,206.9821248536075,241.62087185222668,206.9821248536075,241.62087185222668C207.38212485360748,241.70976074111553,207.38212485360748,241.8430940744489,207.38212485360748,242.4208718522267C205.73768040916303,243.22087185222665,203.6043470758297,243.6653162966711,202.53768040916304,243.39864963000446C201.73768040916303,243.8430940744489,200.44879152027414,243.8430940744489,199.38212485360748,243.8430940744489C198.0932359647186,243.8430940744489,196.35990263138524,243.88753851889334,194.7154581869408,243.35420518555998C194.44879152027414,243.30976074111555,194.2710137424964,243.22087185222665,194.2710137424964,242.99864963000442C192.8043470758297,242.4208718522267,192.13768040916307,241.53198296333778,191.33768040916306,240.37642740778222C190.49323596471862,235.30976074111555,197.82656929805194,233.70976074111553,201.29323596471858,232.50976074111554C202.84879152027418,232.50976074111554,205.20434707582973,231.1319829633378,205.6932359647186,232.82087185222667C205.64879152027413,234.10976074111556,203.5154581869408,233.44309407444888,202.31545818694082,234.06531629667114C199.87101374249636,234.4208718522267,197.20434707582973,235.62087185222668,194.53768040916304,237.22087185222665C193.95990263138526,237.5764274077822,193.5154581869408,238.15420518556,193.15990263138525,238.90976074111558C193.15990263138525,238.90976074111558,193.15990263138525,238.90976074111558,193.15990263138525,238.90976074111558M212.40434707582972,237.79864963000443C214.7154581869408,236.73198296333777,217.02656929805192,238.59864963000445,217.02656929805192,240.59864963000445C217.02656929805192,243.22087185222665,214.0932359647186,243.5764274077822,211.95990263138526,244.2875385188933C209.64879152027413,244.19864963000447,206.84879152027418,242.06531629667114,208.40434707582972,239.62087185222668C209.4265692980519,238.82087185222667,210.7154581869408,238.06531629667114,212.40434707582972,237.79864963000443C212.40434707582972,237.79864963000443,212.40434707582972,237.79864963000443,212.40434707582972,237.79864963000443M209.6043470758297,241.30976074111555C210.31545818694082,243.70976074111553,215.15990263138525,242.02087185222666,215.4265692980519,240.2875385188933C214.8932359647186,237.6653162966711,209.6932359647186,239.93198296333776,209.6043470758297,241.30976074111555C209.6043470758297,241.30976074111555,209.6043470758297,241.30976074111555,209.6043470758297,241.30976074111555M232.7154581869408,241.35420518555998C232.62656929805195,242.2875385188933,232.7154581869408,243.88753851889334,232.84879152027418,244.59864963000445C232.0932359647186,244.73198296333777,231.5154581869408,244.55420518556002,231.42656929805196,243.88753851889334C231.0710137424964,243.5764274077822,231.20434707582973,241.93198296333776,230.84879152027418,240.77642740778225C229.29323596471858,240.90976074111558,227.20434707582973,242.95420518556,225.91545818694084,243.88753851889334C225.38212485360748,244.2430940744489,224.13768040916307,244.06531629667114,224.1821248536075,243.22087185222665C224.1821248536075,243.22087185222665,224.2710137424964,240.73198296333777,224.2710137424964,240.73198296333777C224.2265692980519,240.15420518556,224.44879152027414,239.48753851889336,223.91545818694084,239.44309407444888C222.35990263138524,239.79864963000443,220.40434707582972,242.64309407444887,218.8043470758297,243.30976074111555C218.53768040916304,243.39864963000446,217.91545818694084,242.50976074111554,217.87101374249636,242.3319829633378C217.91545818694084,241.44309407444888,218.49323596471862,237.6653162966711,219.6043470758297,239.48753851889336C219.6043470758297,239.48753851889336,219.95990263138526,240.15420518556,219.95990263138526,240.15420518556C220.7154581869408,239.53198296333778,223.15990263138525,237.6653162966711,224.0932359647186,237.75420518556C225.29323596471858,237.88753851889334,226.2710137424964,239.53198296333778,226.00434707582968,241.30976074111555C227.0710137424964,241.22087185222665,228.93768040916302,238.8653162966711,231.5154581869408,238.95420518556C232.00434707582968,239.5764274077822,232.75990263138527,239.97642740778224,232.7154581869408,241.35420518555998C232.7154581869408,241.35420518555998,232.7154581869408,241.35420518555998,232.7154581869408,241.35420518555998M249.07101374249635,241.35420518555998C248.9821248536075,242.2875385188933,249.07101374249635,243.88753851889334,249.20434707582973,244.59864963000445C248.44879152027414,244.73198296333777,247.87101374249636,244.55420518556002,247.7821248536075,243.88753851889334C247.4265692980519,243.5764274077822,247.55990263138528,241.93198296333776,247.20434707582973,240.77642740778225C245.64879152027413,240.90976074111558,243.55990263138528,242.95420518556,242.2710137424964,243.88753851889334C241.73768040916303,244.2430940744489,240.49323596471862,244.06531629667114,240.53768040916304,243.22087185222665C240.53768040916304,243.22087185222665,240.62656929805195,240.73198296333777,240.62656929805195,240.73198296333777C240.58212485360747,240.15420518556,240.8043470758297,239.48753851889336,240.2710137424964,239.44309407444888C238.7154581869408,239.79864963000443,236.75990263138527,242.64309407444887,235.15990263138525,243.30976074111555C234.8932359647186,243.39864963000446,234.2710137424964,242.50976074111554,234.2265692980519,242.3319829633378C234.2710137424964,241.44309407444888,234.84879152027418,237.6653162966711,235.95990263138526,239.48753851889336C235.95990263138526,239.48753851889336,236.31545818694082,240.15420518556,236.31545818694082,240.15420518556C237.07101374249635,239.53198296333778,239.5154581869408,237.6653162966711,240.44879152027414,237.75420518556C241.64879152027413,237.88753851889334,242.62656929805195,239.53198296333778,242.35990263138524,241.30976074111555C243.4265692980519,241.22087185222665,245.29323596471858,238.8653162966711,247.87101374249636,238.95420518556C248.35990263138524,239.5764274077822,249.11545818694083,239.97642740778224,249.07101374249635,241.35420518555998C249.07101374249635,241.35420518555998,249.07101374249635,241.35420518555998,249.07101374249635,241.35420518555998M259.15990263138525,237.93198296333776C259.1154581869408,237.8430940744489,259.64879152027413,237.30976074111555,259.7821248536075,237.35420518555998C260.04879152027416,237.35420518555998,260.2265692980519,237.6653162966711,260.2265692980519,238.3319829633378C260.0932359647186,240.10976074111556,259.20434707582973,240.82087185222667,258.44879152027414,241.97642740778224C257.87101374249636,242.82087185222667,255.6932359647186,243.88753851889334,254.31545818694082,243.88753851889334C251.33768040916306,243.79864963000443,249.38212485360748,240.55420518556002,251.15990263138525,237.97642740778224C252.31545818694082,237.8430940744489,252.0932359647186,239.26531629667113,252.00434707582968,240.15420518556C251.95990263138526,241.35420518555998,253.15990263138525,242.10976074111556,254.53768040916304,242.02087185222666C256.35990263138524,241.93198296333776,258.67101374249637,239.5764274077822,259.15990263138525,237.93198296333776C259.15990263138525,237.93198296333776,259.15990263138525,237.93198296333776,259.15990263138525,237.93198296333776M266.0932359647186,237.93198296333776C267.73768040916303,238.19864963000447,268.8487915202741,240.3319829633378,268.8487915202741,242.8653162966711C268.8487915202741,244.2875385188933,268.137680409163,243.97642740778224,267.4710137424963,243.62087185222668C266.67101374249637,242.2875385188933,267.24879152027415,241.62087185222668,266.49323596471856,239.8430940744489C264.8487915202741,239.26531629667113,263.337680409163,242.2875385188933,262.40434707582966,242.73198296333777C261.5154581869408,242.59864963000445,260.67101374249637,240.99864963000442,261.4710137424963,239.97642740778224C261.5599026313852,239.44309407444888,261.6043470758297,239.30976074111555,261.95990263138526,238.64309407444887C262.49323596471856,238.2875385188933,262.8487915202741,239.1319829633378,263.24879152027415,239.17642740778223C263.24879152027415,239.17642740778223,266.0932359647186,237.93198296333776,266.0932359647186,237.93198296333776M272.0932359647186,234.68753851889335C272.4043470758297,235.48753851889336,272.4932359647186,235.70976074111553,271.8710137424964,236.37642740778222C270.8487915202742,236.10976074111556,270.9376804091631,235.5764274077822,271.3821248536075,234.77642740778225C271.4710137424964,234.77642740778225,271.73768040916303,234.73198296333777,272.0932359647186,234.68753851889335C272.0932359647186,234.68753851889335,272.0932359647186,234.68753851889335,272.0932359647186,234.68753851889335M270.8487915202742,243.6653162966711C270.04879152027416,242.73198296333777,270.4932359647186,240.4208718522267,270.8043470758297,238.95420518556C271.1154581869408,238.50976074111554,271.6932359647186,238.59864963000445,271.82656929805194,239.22087185222665C271.7821248536075,240.82087185222667,272.13768040916307,242.4208718522267,271.73768040916303,243.8430940744489C271.3821248536075,243.93198296333776,271.3821248536075,243.8430940744489,270.8487915202742,243.6653162966711C270.8487915202742,243.6653162966711,270.8487915202742,243.6653162966711,270.8487915202742,243.6653162966711M278.58212485360747,238.50976074111554C279.87101374249636,238.19864963000447,280.2265692980519,239.79864963000443,279.1154581869408,239.97642740778224C277.91545818694084,239.79864963000443,277.33768040916306,240.2430940744489,275.6043470758297,241.08753851889333C275.24879152027415,241.26531629667113,275.0265692980519,241.5764274077822,274.8932359647186,242.06531629667114C276.2265692980519,243.48753851889336,278.937680409163,242.19864963000447,280.8487915202742,242.55420518556002C281.0710137424964,243.1319829633378,280.4932359647186,243.70976074111553,279.87101374249636,243.39864963000446C277.6043470758297,244.50976074111554,273.6932359647186,244.64309407444887,273.20434707582973,242.06531629667114C273.4710137424964,239.8430940744489,276.2710137424964,238.4208718522267,278.58212485360747,238.50976074111554C278.58212485360747,238.50976074111554,278.58212485360747,238.50976074111554,278.58212485360747,238.50976074111554M287.0265692980519,241.48753851889336C287.4710137424964,241.6653162966711,289.64879152027413,243.30976074111555,289.9154581869408,243.70976074111553C289.95990263138526,244.02087185222666,289.64879152027413,244.46531629667112,289.3821248536075,244.46531629667112C289.3821248536075,244.46531629667112,286.7154581869408,243.1319829633378,286.7154581869408,243.1319829633378C285.73768040916303,243.22087185222665,284.8487915202741,244.06531629667114,283.82656929805194,243.97642740778224C282.35990263138524,244.15420518556,280.8043470758297,240.99864963000442,283.15990263138525,240.37642740778222C284.98212485360744,239.17642740778223,287.4265692980519,238.64309407444887,288.04879152027416,240.77642740778225C288.04879152027416,241.0430940744489,287.87101374249636,241.30976074111555,287.5599026313852,241.48753851889336C286.0932359647186,240.37642740778222,284.58212485360747,241.26531629667113,283.64879152027413,242.02087185222666C284.0932359647186,242.73198296333777,286.35990263138524,241.22087185222665,287.0265692980519,241.48753851889336C287.0265692980519,241.48753851889336,287.0265692980519,241.48753851889336,287.0265692980519,241.48753851889336M294.0043470758297,237.30976074111555C294.44879152027414,235.48753851889336,295.5599026313852,231.70976074111553,296.8932359647186,231.35420518555998C297.07101374249635,231.39864963000446,297.95990263138526,232.19864963000447,297.3821248536075,232.95420518556C296.6265692980519,233.93198296333776,296.0932359647186,235.48753851889336,295.78212485360746,237.5764274077822C296.937680409163,237.93198296333776,298.0043470758297,237.26531629667113,299.0265692980519,237.79864963000443C299.64879152027413,237.79864963000443,300.0043470758297,237.93198296333776,300.0043470758297,238.19864963000447C299.95990263138526,239.0430940744489,298.04879152027416,238.99864963000442,297.4710137424964,239.22087185222665C297.0265692980519,239.26531629667113,295.4265692980519,239.22087185222665,295.07101374249635,239.6653162966711C294.6265692980519,240.73198296333777,294.8932359647186,242.64309407444887,294.1821248536075,244.02087185222666C293.24879152027415,243.88753851889334,293.0265692980519,244.06531629667114,293.0265692980519,243.1319829633378C293.0265692980519,242.73198296333777,293.1154581869408,241.53198296333778,293.3821248536075,239.53198296333778C292.7154581869408,238.95420518556,289.78212485360746,239.93198296333776,289.95990263138526,238.3319829633378C290.137680409163,236.64309407444887,293.1154581869408,238.59864963000445,294.0043470758297,237.30976074111555C294.0043470758297,237.30976074111555,294.0043470758297,237.30976074111555,294.0043470758297,237.30976074111555M301.6043470758297,234.68753851889335C301.91545818694084,235.48753851889336,302.00434707582974,235.70976074111553,301.38212485360754,236.37642740778222C300.3599026313853,236.10976074111556,300.4487915202742,235.5764274077822,300.8932359647186,234.77642740778225C300.9821248536075,234.77642740778225,301.24879152027415,234.73198296333777,301.6043470758297,234.68753851889335C301.6043470758297,234.68753851889335,301.6043470758297,234.68753851889335,301.6043470758297,234.68753851889335M300.3599026313853,243.6653162966711C299.5599026313853,242.73198296333777,300.00434707582974,240.4208718522267,300.3154581869408,238.95420518556C300.62656929805195,238.50976074111554,301.20434707582973,238.59864963000445,301.33768040916306,239.22087185222665C301.29323596471863,240.82087185222667,301.6487915202742,242.4208718522267,301.24879152027415,243.8430940744489C300.8932359647186,243.93198296333776,300.8932359647186,243.8430940744489,300.3599026313853,243.6653162966711C300.3599026313853,243.6653162966711,300.3599026313853,243.6653162966711,300.3599026313853,243.6653162966711M307.20434707582973,237.79864963000443C309.5154581869408,236.73198296333777,311.82656929805194,238.59864963000445,311.82656929805194,240.59864963000445C311.82656929805194,243.22087185222665,308.8932359647186,243.5764274077822,306.7599026313853,244.2875385188933C304.44879152027414,244.19864963000447,301.6487915202742,242.06531629667114,303.20434707582973,239.62087185222668C304.2265692980519,238.82087185222667,305.5154581869408,238.06531629667114,307.20434707582973,237.79864963000443C307.20434707582973,237.79864963000443,307.20434707582973,237.79864963000443,307.20434707582973,237.79864963000443M304.4043470758297,241.30976074111555C305.1154581869408,243.70976074111553,309.95990263138526,242.02087185222666,310.22656929805197,240.2875385188933C309.6932359647186,237.6653162966711,304.4932359647186,239.93198296333776,304.4043470758297,241.30976074111555C304.4043470758297,241.30976074111555,304.4043470758297,241.30976074111555,304.4043470758297,241.30976074111555M317.42656929805196,237.93198296333776C319.0710137424964,238.19864963000447,320.1821248536075,240.3319829633378,320.1821248536075,242.8653162966711C320.1821248536075,244.2875385188933,319.4710137424964,243.97642740778224,318.8043470758297,243.62087185222668C318.00434707582974,242.2875385188933,318.5821248536075,241.62087185222668,317.82656929805194,239.8430940744489C316.1821248536075,239.26531629667113,314.67101374249637,242.2875385188933,313.73768040916303,242.73198296333777C312.8487915202742,242.59864963000445,312.00434707582974,240.99864963000442,312.8043470758297,239.97642740778224C312.8932359647186,239.44309407444888,312.9376804091631,239.30976074111555,313.29323596471863,238.64309407444887C313.82656929805194,238.2875385188933,314.1821248536075,239.1319829633378,314.5821248536075,239.17642740778223C314.5821248536075,239.17642740778223,317.42656929805196,237.93198296333776,317.42656929805196,237.93198296333776" style="-webkit-tap-highlight-color: rgba(0, 0, 0, 0);"></path><rect x="255.72632329038984" y="274.6399009090617" width="0" height="0" rx="0" ry="0" fill="#ffffff" stroke="none" style="-webkit-tap-highlight-color: rgba(0, 0, 0, 0);"></rect><path fill="#000000" stroke="none" d="M255.72632329038984,274.6399009090617" style="-webkit-tap-highlight-color: rgba(0, 0, 0, 0);"></path><path fill="none" stroke="#000000" d="M315.18212485360755,269.6399009090617C291.263355263724,265.28987292750287,223.20575845314426,272.87480941292597,201.16870688946858,270.5644482103924" stroke-width="2" marker-end="url(#raphael-marker-endblock55-obj6850)" stroke-dasharray="0" style="-webkit-tap-highlight-color: rgba(0, 0, 0, 0);"></path><rect x="255.72632329038984" y="294.6399009090617" width="0" height="0" rx="0" ry="0" fill="#ffffff" stroke="none" style="-webkit-tap-highlight-color: rgba(0, 0, 0, 0);"></rect><path fill="#000000" stroke="none" d="M255.72632329038984,294.6399009090617" style="-webkit-tap-highlight-color: rgba(0, 0, 0, 0);"></path><path fill="none" stroke="#000000" d="M315.18212485360755,289.6399009090617C308.72621015992024,294.30433627876977,284.4990339543537,285.246210048423,201.26626342596293,289.3796332077774" stroke-width="2" marker-end="url(#raphael-marker-endblock55-obj6853)" stroke-dasharray="0" style="-webkit-tap-highlight-color: rgba(0, 0, 0, 0);"></path><rect x="255.72632329038984" y="314.6399009090617" width="0" height="0" rx="0" ry="0" fill="#ffffff" stroke="none" style="-webkit-tap-highlight-color: rgba(0, 0, 0, 0);"></rect><path fill="#000000" stroke="none" d="M255.72632329038984,314.6399009090617" style="-webkit-tap-highlight-color: rgba(0, 0, 0, 0);"></path><path fill="none" stroke="#000000" d="M315.18212485360755,309.6399009090617C236.74372677326727,305.23181062128873,221.48942125959132,313.0794166707126,201.20715883119195,310.46659440108374" stroke-width="2" marker-end="url(#raphael-marker-endblock55-obj6856)" stroke-dasharray="0" style="-webkit-tap-highlight-color: rgba(0, 0, 0, 0);"></path><rect x="255.72632329038984" y="334.6399009090617" width="0" height="0" rx="0" ry="0" fill="#ffffff" stroke="none" style="-webkit-tap-highlight-color: rgba(0, 0, 0, 0);"></rect><path fill="#000000" stroke="none" d="M255.72632329038984,334.6399009090617" style="-webkit-tap-highlight-color: rgba(0, 0, 0, 0);"></path><path fill="none" stroke="#000000" d="M315.18212485360755,329.6399009090617C302.57809832186905,334.2773373063802,265.25522520936477,325.3506118975282,201.25157431520051,329.30917789194996" stroke-width="2" marker-end="url(#raphael-marker-endblock55-obj6859)" stroke-dasharray="0" style="-webkit-tap-highlight-color: rgba(0, 0, 0, 0);"></path></svg>